<svg xmlns="http://www.w3.org/2000/svg" xmlns:xlink="http://www.w3.org/1999/xlink" width="475" zoomAndPan="magnify" viewBox="0 0 356.25 119.249998" height="159" preserveAspectRatio="xMidYMid meet" version="1.0"><defs><g/><clipPath id="ec63fddb56"><path d="M 171.882812 61.675781 L 189 61.675781 L 189 78.816406 L 171.882812 78.816406 Z M 171.882812 61.675781 " clip-rule="nonzero"/></clipPath><clipPath id="050bedd1ef"><path d="M 295.417969 61.675781 L 312.5625 61.675781 L 312.5625 78.816406 L 295.417969 78.816406 Z M 295.417969 61.675781 " clip-rule="nonzero"/></clipPath></defs><path fill="#ffc7c7" d="M 77.4375 44.15625 C 102.992188 0 34.847656 0 60.402344 44.15625 C 34.847656 0 0.777344 58.878906 51.882812 58.878906 C 0.777344 58.878906 34.847656 117.753906 60.402344 73.597656 C 34.847656 117.753906 102.992188 117.753906 77.4375 73.597656 C 102.992188 117.753906 137.0625 58.878906 85.957031 58.878906 C 137.066406 58.878906 102.992188 0 77.4375 44.15625 Z M 77.4375 44.15625 " fill-opacity="1" fill-rule="nonzero"/><path fill="#ff8888" d="M 81.324219 58.878906 C 81.324219 59.691406 81.246094 60.496094 81.085938 61.292969 C 80.925781 62.089844 80.691406 62.863281 80.378906 63.613281 C 80.066406 64.363281 79.6875 65.078125 79.234375 65.75 C 78.78125 66.425781 78.265625 67.050781 77.691406 67.625 C 77.113281 68.203125 76.488281 68.714844 75.8125 69.164062 C 75.132812 69.617188 74.417969 70 73.667969 70.308594 C 72.914062 70.621094 72.140625 70.855469 71.339844 71.011719 C 70.542969 71.171875 69.734375 71.25 68.921875 71.25 C 68.105469 71.25 67.300781 71.171875 66.5 71.011719 C 65.703125 70.855469 64.925781 70.621094 64.175781 70.308594 C 63.421875 70 62.707031 69.617188 62.03125 69.164062 C 61.351562 68.714844 60.726562 68.203125 60.148438 67.625 C 59.574219 67.050781 59.058594 66.425781 58.609375 65.75 C 58.15625 65.078125 57.773438 64.363281 57.460938 63.613281 C 57.148438 62.863281 56.914062 62.089844 56.753906 61.292969 C 56.597656 60.496094 56.515625 59.691406 56.515625 58.878906 C 56.515625 58.066406 56.597656 57.261719 56.753906 56.464844 C 56.914062 55.667969 57.148438 54.890625 57.460938 54.140625 C 57.773438 53.390625 58.15625 52.679688 58.609375 52.003906 C 59.058594 51.328125 59.574219 50.703125 60.148438 50.128906 C 60.726562 49.550781 61.351562 49.039062 62.03125 48.589844 C 62.707031 48.136719 63.421875 47.753906 64.175781 47.445312 C 64.925781 47.132812 65.703125 46.898438 66.5 46.742188 C 67.300781 46.582031 68.105469 46.503906 68.921875 46.503906 C 69.734375 46.503906 70.542969 46.582031 71.339844 46.742188 C 72.140625 46.898438 72.914062 47.132812 73.667969 47.445312 C 74.417969 47.753906 75.132812 48.136719 75.8125 48.589844 C 76.488281 49.039062 77.113281 49.550781 77.691406 50.128906 C 78.265625 50.703125 78.78125 51.328125 79.234375 52.003906 C 79.6875 52.679688 80.066406 53.390625 80.378906 54.140625 C 80.691406 54.890625 80.925781 55.667969 81.085938 56.464844 C 81.246094 57.261719 81.324219 58.066406 81.324219 58.878906 Z M 81.324219 58.878906 " fill-opacity="1" fill-rule="nonzero"/><g fill="#000000" fill-opacity="1"><g transform="translate(140.131264, 51.931402)"><g><path d="M 2.0625 0 L 2.0625 -17.484375 L 7 -17.484375 C 8.34375 -17.484375 9.550781 -17.3125 10.625 -16.96875 C 11.695312 -16.632812 12.617188 -16.113281 13.390625 -15.40625 C 14.160156 -14.707031 14.75 -13.8125 15.15625 -12.71875 C 15.570312 -11.625 15.78125 -10.328125 15.78125 -8.828125 C 15.78125 -7.328125 15.570312 -6.019531 15.15625 -4.90625 C 14.75 -3.800781 14.164062 -2.882812 13.40625 -2.15625 C 12.65625 -1.4375 11.753906 -0.894531 10.703125 -0.53125 C 9.660156 -0.175781 8.5 0 7.21875 0 Z M 6.015625 -3.1875 L 6.765625 -3.1875 C 7.515625 -3.1875 8.191406 -3.285156 8.796875 -3.484375 C 9.410156 -3.679688 9.929688 -4 10.359375 -4.4375 C 10.785156 -4.875 11.117188 -5.453125 11.359375 -6.171875 C 11.597656 -6.890625 11.71875 -7.773438 11.71875 -8.828125 C 11.71875 -9.859375 11.597656 -10.726562 11.359375 -11.4375 C 11.117188 -12.144531 10.785156 -12.707031 10.359375 -13.125 C 9.929688 -13.550781 9.410156 -13.851562 8.796875 -14.03125 C 8.191406 -14.207031 7.515625 -14.296875 6.765625 -14.296875 L 6.015625 -14.296875 Z M 6.015625 -3.1875 "/></g></g></g><g fill="#000000" fill-opacity="1"><g transform="translate(157.16167, 51.931402)"><g><path d="M 5.09375 0.328125 C 4.488281 0.328125 3.9375 0.222656 3.4375 0.015625 C 2.945312 -0.191406 2.53125 -0.476562 2.1875 -0.84375 C 1.851562 -1.207031 1.59375 -1.628906 1.40625 -2.109375 C 1.21875 -2.597656 1.125 -3.128906 1.125 -3.703125 C 1.125 -5.097656 1.710938 -6.1875 2.890625 -6.96875 C 4.078125 -7.757812 5.984375 -8.289062 8.609375 -8.5625 C 8.578125 -9.144531 8.40625 -9.609375 8.09375 -9.953125 C 7.78125 -10.304688 7.253906 -10.484375 6.515625 -10.484375 C 5.941406 -10.484375 5.375 -10.375 4.8125 -10.15625 C 4.25 -9.945312 3.644531 -9.65625 3 -9.28125 L 1.578125 -11.890625 C 2.441406 -12.398438 3.34375 -12.816406 4.28125 -13.140625 C 5.21875 -13.460938 6.210938 -13.625 7.265625 -13.625 C 8.984375 -13.625 10.296875 -13.132812 11.203125 -12.15625 C 12.109375 -11.1875 12.5625 -9.675781 12.5625 -7.625 L 12.5625 0 L 9.34375 0 L 9.0625 -1.375 L 8.953125 -1.375 C 8.390625 -0.863281 7.789062 -0.453125 7.15625 -0.140625 C 6.53125 0.171875 5.84375 0.328125 5.09375 0.328125 Z M 6.4375 -2.734375 C 6.882812 -2.734375 7.269531 -2.832031 7.59375 -3.03125 C 7.914062 -3.226562 8.253906 -3.503906 8.609375 -3.859375 L 8.609375 -6.203125 C 7.210938 -6.003906 6.242188 -5.71875 5.703125 -5.34375 C 5.171875 -4.96875 4.90625 -4.519531 4.90625 -4 C 4.90625 -3.570312 5.039062 -3.253906 5.3125 -3.046875 C 5.59375 -2.835938 5.96875 -2.734375 6.4375 -2.734375 Z M 6.4375 -2.734375 "/></g></g></g><g fill="#000000" fill-opacity="1"><g transform="translate(171.295563, 51.931402)"><g><path d="M 2.421875 0 L 2.421875 -10.21875 L 0.640625 -10.21875 L 0.640625 -13.140625 L 2.421875 -13.28125 L 2.421875 -14 C 2.421875 -14.695312 2.503906 -15.359375 2.671875 -15.984375 C 2.835938 -16.609375 3.117188 -17.15625 3.515625 -17.625 C 3.910156 -18.09375 4.421875 -18.457031 5.046875 -18.71875 C 5.671875 -18.988281 6.429688 -19.125 7.328125 -19.125 C 7.878906 -19.125 8.382812 -19.070312 8.84375 -18.96875 C 9.300781 -18.863281 9.679688 -18.753906 9.984375 -18.640625 L 9.25 -15.75 C 8.75 -15.925781 8.296875 -16.015625 7.890625 -16.015625 C 7.398438 -16.015625 7.019531 -15.863281 6.75 -15.5625 C 6.488281 -15.269531 6.359375 -14.785156 6.359375 -14.109375 L 6.359375 -13.3125 L 8.75 -13.3125 L 8.75 -10.21875 L 6.359375 -10.21875 L 6.359375 0 Z M 2.421875 0 "/></g></g></g><g fill="#000000" fill-opacity="1"><g transform="translate(180.441027, 51.931402)"><g><path d="M 2.421875 0 L 2.421875 -10.21875 L 0.640625 -10.21875 L 0.640625 -13.140625 L 2.421875 -13.28125 L 2.421875 -14 C 2.421875 -14.695312 2.503906 -15.359375 2.671875 -15.984375 C 2.835938 -16.609375 3.117188 -17.15625 3.515625 -17.625 C 3.910156 -18.09375 4.421875 -18.457031 5.046875 -18.71875 C 5.671875 -18.988281 6.429688 -19.125 7.328125 -19.125 C 7.878906 -19.125 8.382812 -19.070312 8.84375 -18.96875 C 9.300781 -18.863281 9.679688 -18.753906 9.984375 -18.640625 L 9.25 -15.75 C 8.75 -15.925781 8.296875 -16.015625 7.890625 -16.015625 C 7.398438 -16.015625 7.019531 -15.863281 6.75 -15.5625 C 6.488281 -15.269531 6.359375 -14.785156 6.359375 -14.109375 L 6.359375 -13.3125 L 8.75 -13.3125 L 8.75 -10.21875 L 6.359375 -10.21875 L 6.359375 0 Z M 2.421875 0 "/></g></g></g><g fill="#000000" fill-opacity="1"><g transform="translate(189.586492, 51.931402)"><g><path d="M 7.453125 0.328125 C 6.617188 0.328125 5.804688 0.171875 5.015625 -0.140625 C 4.234375 -0.453125 3.539062 -0.90625 2.9375 -1.5 C 2.332031 -2.09375 1.851562 -2.820312 1.5 -3.6875 C 1.144531 -4.550781 0.96875 -5.539062 0.96875 -6.65625 C 0.96875 -7.757812 1.144531 -8.742188 1.5 -9.609375 C 1.851562 -10.484375 2.332031 -11.210938 2.9375 -11.796875 C 3.539062 -12.390625 4.234375 -12.84375 5.015625 -13.15625 C 5.804688 -13.46875 6.617188 -13.625 7.453125 -13.625 C 8.296875 -13.625 9.101562 -13.46875 9.875 -13.15625 C 10.65625 -12.84375 11.34375 -12.390625 11.9375 -11.796875 C 12.539062 -11.210938 13.019531 -10.484375 13.375 -9.609375 C 13.738281 -8.742188 13.921875 -7.757812 13.921875 -6.65625 C 13.921875 -5.539062 13.738281 -4.550781 13.375 -3.6875 C 13.019531 -2.820312 12.539062 -2.09375 11.9375 -1.5 C 11.34375 -0.90625 10.65625 -0.453125 9.875 -0.140625 C 9.101562 0.171875 8.296875 0.328125 7.453125 0.328125 Z M 7.453125 -2.875 C 8.265625 -2.875 8.875 -3.210938 9.28125 -3.890625 C 9.695312 -4.566406 9.90625 -5.488281 9.90625 -6.65625 C 9.90625 -7.8125 9.695312 -8.726562 9.28125 -9.40625 C 8.875 -10.09375 8.265625 -10.4375 7.453125 -10.4375 C 6.628906 -10.4375 6.015625 -10.09375 5.609375 -9.40625 C 5.210938 -8.726562 5.015625 -7.8125 5.015625 -6.65625 C 5.015625 -5.488281 5.210938 -4.566406 5.609375 -3.890625 C 6.015625 -3.210938 6.628906 -2.875 7.453125 -2.875 Z M 7.453125 -2.875 "/></g></g></g><g fill="#000000" fill-opacity="1"><g transform="translate(204.471327, 51.931402)"><g><path d="M 6.5 0.328125 C 5.675781 0.328125 4.925781 0.164062 4.25 -0.15625 C 3.582031 -0.476562 3.007812 -0.9375 2.53125 -1.53125 C 2.0625 -2.132812 1.695312 -2.863281 1.4375 -3.71875 C 1.175781 -4.582031 1.046875 -5.5625 1.046875 -6.65625 C 1.046875 -7.75 1.203125 -8.722656 1.515625 -9.578125 C 1.828125 -10.429688 2.238281 -11.15625 2.75 -11.75 C 3.257812 -12.351562 3.847656 -12.816406 4.515625 -13.140625 C 5.191406 -13.460938 5.878906 -13.625 6.578125 -13.625 C 7.328125 -13.625 7.941406 -13.5 8.421875 -13.25 C 8.898438 -13 9.375 -12.660156 9.84375 -12.234375 L 9.6875 -14.265625 L 9.6875 -18.8125 L 13.625 -18.8125 L 13.625 0 L 10.40625 0 L 10.140625 -1.3125 L 10.03125 -1.3125 C 9.570312 -0.84375 9.023438 -0.453125 8.390625 -0.140625 C 7.765625 0.171875 7.132812 0.328125 6.5 0.328125 Z M 7.515625 -2.890625 C 7.941406 -2.890625 8.328125 -2.976562 8.671875 -3.15625 C 9.023438 -3.34375 9.363281 -3.660156 9.6875 -4.109375 L 9.6875 -9.546875 C 9.320312 -9.867188 8.953125 -10.09375 8.578125 -10.21875 C 8.203125 -10.34375 7.835938 -10.40625 7.484375 -10.40625 C 6.859375 -10.40625 6.300781 -10.101562 5.8125 -9.5 C 5.332031 -8.90625 5.09375 -7.972656 5.09375 -6.703125 C 5.09375 -5.378906 5.300781 -4.410156 5.71875 -3.796875 C 6.144531 -3.191406 6.742188 -2.890625 7.515625 -2.890625 Z M 7.515625 -2.890625 "/></g></g></g><g fill="#000000" fill-opacity="1"><g transform="translate(219.838915, 51.931402)"><g><path d="M 1.75 0 L 1.75 -13.3125 L 5.6875 -13.3125 L 5.6875 0 Z M 3.703125 -15.265625 C 3.035156 -15.265625 2.488281 -15.457031 2.0625 -15.84375 C 1.632812 -16.226562 1.421875 -16.722656 1.421875 -17.328125 C 1.421875 -17.941406 1.632812 -18.4375 2.0625 -18.8125 C 2.488281 -19.1875 3.035156 -19.375 3.703125 -19.375 C 4.378906 -19.375 4.925781 -19.1875 5.34375 -18.8125 C 5.769531 -18.4375 5.984375 -17.941406 5.984375 -17.328125 C 5.984375 -16.722656 5.769531 -16.226562 5.34375 -15.84375 C 4.925781 -15.457031 4.378906 -15.265625 3.703125 -15.265625 Z M 3.703125 -15.265625 "/></g></g></g><g fill="#000000" fill-opacity="1"><g transform="translate(227.241102, 51.931402)"><g><path d="M 5.359375 0.328125 C 4.679688 0.328125 4.109375 0.21875 3.640625 0 C 3.179688 -0.21875 2.8125 -0.515625 2.53125 -0.890625 C 2.257812 -1.273438 2.0625 -1.738281 1.9375 -2.28125 C 1.8125 -2.832031 1.75 -3.445312 1.75 -4.125 L 1.75 -18.8125 L 5.6875 -18.8125 L 5.6875 -3.96875 C 5.6875 -3.5625 5.757812 -3.273438 5.90625 -3.109375 C 6.0625 -2.953125 6.222656 -2.875 6.390625 -2.875 C 6.472656 -2.875 6.546875 -2.875 6.609375 -2.875 C 6.671875 -2.875 6.757812 -2.890625 6.875 -2.921875 L 7.34375 0 C 7.132812 0.09375 6.863281 0.171875 6.53125 0.234375 C 6.195312 0.296875 5.804688 0.328125 5.359375 0.328125 Z M 5.359375 0.328125 "/></g></g></g><g fill="#000000" fill-opacity="1"><g transform="translate(234.911488, 51.931402)"><g/></g></g><g fill="#000000" fill-opacity="1"><g transform="translate(240.275393, 51.931402)"><g><path d="M 3.625 0 L 0.375 -17.484375 L 4.421875 -17.484375 L 5.640625 -9.3125 C 5.742188 -8.394531 5.859375 -7.472656 5.984375 -6.546875 C 6.109375 -5.628906 6.222656 -4.707031 6.328125 -3.78125 L 6.4375 -3.78125 C 6.613281 -4.707031 6.785156 -5.628906 6.953125 -6.546875 C 7.128906 -7.472656 7.304688 -8.394531 7.484375 -9.3125 L 9.359375 -17.484375 L 12.71875 -17.484375 L 14.59375 -9.3125 C 14.769531 -8.414062 14.941406 -7.503906 15.109375 -6.578125 C 15.285156 -5.660156 15.460938 -4.726562 15.640625 -3.78125 L 15.75 -3.78125 C 15.875 -4.726562 15.992188 -5.65625 16.109375 -6.5625 C 16.222656 -7.476562 16.34375 -8.394531 16.46875 -9.3125 L 17.671875 -17.484375 L 21.46875 -17.484375 L 18.34375 0 L 13.390625 0 L 11.671875 -7.9375 C 11.523438 -8.613281 11.394531 -9.296875 11.28125 -9.984375 C 11.164062 -10.679688 11.0625 -11.347656 10.96875 -11.984375 L 10.859375 -11.984375 C 10.753906 -11.347656 10.644531 -10.679688 10.53125 -9.984375 C 10.414062 -9.296875 10.285156 -8.613281 10.140625 -7.9375 L 8.5 0 Z M 3.625 0 "/></g></g></g><g fill="#000000" fill-opacity="1"><g transform="translate(262.079672, 51.931402)"><g><path d="M 7.453125 0.328125 C 6.617188 0.328125 5.804688 0.171875 5.015625 -0.140625 C 4.234375 -0.453125 3.539062 -0.90625 2.9375 -1.5 C 2.332031 -2.09375 1.851562 -2.820312 1.5 -3.6875 C 1.144531 -4.550781 0.96875 -5.539062 0.96875 -6.65625 C 0.96875 -7.757812 1.144531 -8.742188 1.5 -9.609375 C 1.851562 -10.484375 2.332031 -11.210938 2.9375 -11.796875 C 3.539062 -12.390625 4.234375 -12.84375 5.015625 -13.15625 C 5.804688 -13.46875 6.617188 -13.625 7.453125 -13.625 C 8.296875 -13.625 9.101562 -13.46875 9.875 -13.15625 C 10.65625 -12.84375 11.34375 -12.390625 11.9375 -11.796875 C 12.539062 -11.210938 13.019531 -10.484375 13.375 -9.609375 C 13.738281 -8.742188 13.921875 -7.757812 13.921875 -6.65625 C 13.921875 -5.539062 13.738281 -4.550781 13.375 -3.6875 C 13.019531 -2.820312 12.539062 -2.09375 11.9375 -1.5 C 11.34375 -0.90625 10.65625 -0.453125 9.875 -0.140625 C 9.101562 0.171875 8.296875 0.328125 7.453125 0.328125 Z M 7.453125 -2.875 C 8.265625 -2.875 8.875 -3.210938 9.28125 -3.890625 C 9.695312 -4.566406 9.90625 -5.488281 9.90625 -6.65625 C 9.90625 -7.8125 9.695312 -8.726562 9.28125 -9.40625 C 8.875 -10.09375 8.265625 -10.4375 7.453125 -10.4375 C 6.628906 -10.4375 6.015625 -10.09375 5.609375 -9.40625 C 5.210938 -8.726562 5.015625 -7.8125 5.015625 -6.65625 C 5.015625 -5.488281 5.210938 -4.566406 5.609375 -3.890625 C 6.015625 -3.210938 6.628906 -2.875 7.453125 -2.875 Z M 7.453125 -2.875 "/></g></g></g><g fill="#000000" fill-opacity="1"><g transform="translate(276.964506, 51.931402)"><g><path d="M 1.75 0 L 1.75 -13.3125 L 4.96875 -13.3125 L 5.234375 -11.609375 L 5.34375 -11.609375 C 5.914062 -12.148438 6.539062 -12.617188 7.21875 -13.015625 C 7.894531 -13.421875 8.691406 -13.625 9.609375 -13.625 C 11.054688 -13.625 12.101562 -13.148438 12.75 -12.203125 C 13.40625 -11.253906 13.734375 -9.941406 13.734375 -8.265625 L 13.734375 0 L 9.796875 0 L 9.796875 -7.75 C 9.796875 -8.71875 9.664062 -9.378906 9.40625 -9.734375 C 9.144531 -10.097656 8.726562 -10.28125 8.15625 -10.28125 C 7.65625 -10.28125 7.222656 -10.164062 6.859375 -9.9375 C 6.503906 -9.71875 6.113281 -9.398438 5.6875 -8.984375 L 5.6875 0 Z M 1.75 0 "/></g></g></g><g fill="#000000" fill-opacity="1"><g transform="translate(292.305279, 51.931402)"><g><path d="M 6.5 0.328125 C 5.675781 0.328125 4.925781 0.164062 4.25 -0.15625 C 3.582031 -0.476562 3.007812 -0.9375 2.53125 -1.53125 C 2.0625 -2.132812 1.695312 -2.863281 1.4375 -3.71875 C 1.175781 -4.582031 1.046875 -5.5625 1.046875 -6.65625 C 1.046875 -7.75 1.203125 -8.722656 1.515625 -9.578125 C 1.828125 -10.429688 2.238281 -11.15625 2.75 -11.75 C 3.257812 -12.351562 3.847656 -12.816406 4.515625 -13.140625 C 5.191406 -13.460938 5.878906 -13.625 6.578125 -13.625 C 7.328125 -13.625 7.941406 -13.5 8.421875 -13.25 C 8.898438 -13 9.375 -12.660156 9.84375 -12.234375 L 9.6875 -14.265625 L 9.6875 -18.8125 L 13.625 -18.8125 L 13.625 0 L 10.40625 0 L 10.140625 -1.3125 L 10.03125 -1.3125 C 9.570312 -0.84375 9.023438 -0.453125 8.390625 -0.140625 C 7.765625 0.171875 7.132812 0.328125 6.5 0.328125 Z M 7.515625 -2.890625 C 7.941406 -2.890625 8.328125 -2.976562 8.671875 -3.15625 C 9.023438 -3.34375 9.363281 -3.660156 9.6875 -4.109375 L 9.6875 -9.546875 C 9.320312 -9.867188 8.953125 -10.09375 8.578125 -10.21875 C 8.203125 -10.34375 7.835938 -10.40625 7.484375 -10.40625 C 6.859375 -10.40625 6.300781 -10.101562 5.8125 -9.5 C 5.332031 -8.90625 5.09375 -7.972656 5.09375 -6.703125 C 5.09375 -5.378906 5.300781 -4.410156 5.71875 -3.796875 C 6.144531 -3.191406 6.742188 -2.890625 7.515625 -2.890625 Z M 7.515625 -2.890625 "/></g></g></g><g fill="#000000" fill-opacity="1"><g transform="translate(307.672867, 51.931402)"><g><path d="M 7.703125 0.328125 C 6.753906 0.328125 5.867188 0.171875 5.046875 -0.140625 C 4.222656 -0.453125 3.503906 -0.910156 2.890625 -1.515625 C 2.285156 -2.117188 1.8125 -2.847656 1.46875 -3.703125 C 1.132812 -4.554688 0.96875 -5.539062 0.96875 -6.65625 C 0.96875 -7.726562 1.144531 -8.695312 1.5 -9.5625 C 1.851562 -10.425781 2.320312 -11.15625 2.90625 -11.75 C 3.488281 -12.351562 4.15625 -12.816406 4.90625 -13.140625 C 5.65625 -13.460938 6.4375 -13.625 7.25 -13.625 C 8.195312 -13.625 9.019531 -13.460938 9.71875 -13.140625 C 10.425781 -12.816406 11.015625 -12.367188 11.484375 -11.796875 C 11.960938 -11.234375 12.316406 -10.5625 12.546875 -9.78125 C 12.785156 -9 12.90625 -8.15625 12.90625 -7.25 C 12.90625 -6.882812 12.882812 -6.539062 12.84375 -6.21875 C 12.8125 -5.894531 12.78125 -5.65625 12.75 -5.5 L 4.78125 -5.5 C 4.957031 -4.53125 5.351562 -3.816406 5.96875 -3.359375 C 6.582031 -2.910156 7.335938 -2.6875 8.234375 -2.6875 C 9.179688 -2.6875 10.140625 -2.976562 11.109375 -3.5625 L 12.421875 -1.1875 C 11.742188 -0.71875 10.988281 -0.347656 10.15625 -0.078125 C 9.320312 0.191406 8.503906 0.328125 7.703125 0.328125 Z M 4.75 -8.109375 L 9.546875 -8.109375 C 9.546875 -8.859375 9.375 -9.460938 9.03125 -9.921875 C 8.695312 -10.390625 8.128906 -10.625 7.328125 -10.625 C 6.703125 -10.625 6.148438 -10.414062 5.671875 -10 C 5.203125 -9.59375 4.894531 -8.960938 4.75 -8.109375 Z M 4.75 -8.109375 "/></g></g></g><g fill="#000000" fill-opacity="1"><g transform="translate(321.565388, 51.931402)"><g><path d="M 1.75 0 L 1.75 -13.3125 L 4.96875 -13.3125 L 5.234375 -10.96875 L 5.34375 -10.96875 C 5.820312 -11.882812 6.398438 -12.554688 7.078125 -12.984375 C 7.765625 -13.410156 8.445312 -13.625 9.125 -13.625 C 9.5 -13.625 9.804688 -13.601562 10.046875 -13.5625 C 10.285156 -13.519531 10.503906 -13.453125 10.703125 -13.359375 L 10.0625 -9.953125 C 9.8125 -10.023438 9.578125 -10.078125 9.359375 -10.109375 C 9.148438 -10.148438 8.898438 -10.171875 8.609375 -10.171875 C 8.109375 -10.171875 7.582031 -9.988281 7.03125 -9.625 C 6.488281 -9.269531 6.039062 -8.632812 5.6875 -7.71875 L 5.6875 0 Z M 1.75 0 "/></g></g></g><g fill="#000000" fill-opacity="1"><g transform="translate(332.239553, 51.931402)"><g><path d="M 5.65625 0.328125 C 4.78125 0.328125 3.878906 0.15625 2.953125 -0.1875 C 2.035156 -0.53125 1.238281 -0.976562 0.5625 -1.53125 L 2.328125 -4 C 2.941406 -3.53125 3.523438 -3.179688 4.078125 -2.953125 C 4.628906 -2.722656 5.191406 -2.609375 5.765625 -2.609375 C 6.359375 -2.609375 6.785156 -2.703125 7.046875 -2.890625 C 7.316406 -3.085938 7.453125 -3.367188 7.453125 -3.734375 C 7.453125 -3.941406 7.375 -4.128906 7.21875 -4.296875 C 7.070312 -4.472656 6.867188 -4.628906 6.609375 -4.765625 C 6.347656 -4.910156 6.054688 -5.039062 5.734375 -5.15625 C 5.421875 -5.28125 5.09375 -5.410156 4.75 -5.546875 C 4.332031 -5.710938 3.914062 -5.898438 3.5 -6.109375 C 3.09375 -6.328125 2.71875 -6.59375 2.375 -6.90625 C 2.039062 -7.21875 1.765625 -7.582031 1.546875 -8 C 1.335938 -8.425781 1.234375 -8.914062 1.234375 -9.46875 C 1.234375 -10.070312 1.351562 -10.632812 1.59375 -11.15625 C 1.832031 -11.675781 2.175781 -12.113281 2.625 -12.46875 C 3.070312 -12.832031 3.609375 -13.113281 4.234375 -13.3125 C 4.859375 -13.519531 5.554688 -13.625 6.328125 -13.625 C 7.347656 -13.625 8.242188 -13.445312 9.015625 -13.09375 C 9.785156 -12.75 10.457031 -12.363281 11.03125 -11.9375 L 9.25 -9.578125 C 8.769531 -9.929688 8.296875 -10.207031 7.828125 -10.40625 C 7.367188 -10.601562 6.90625 -10.703125 6.4375 -10.703125 C 5.4375 -10.703125 4.9375 -10.351562 4.9375 -9.65625 C 4.9375 -9.445312 5.003906 -9.265625 5.140625 -9.109375 C 5.285156 -8.953125 5.476562 -8.8125 5.71875 -8.6875 C 5.96875 -8.5625 6.25 -8.441406 6.5625 -8.328125 C 6.875 -8.210938 7.195312 -8.09375 7.53125 -7.96875 C 7.96875 -7.800781 8.394531 -7.613281 8.8125 -7.40625 C 9.226562 -7.207031 9.609375 -6.957031 9.953125 -6.65625 C 10.304688 -6.351562 10.59375 -5.976562 10.8125 -5.53125 C 11.03125 -5.09375 11.140625 -4.570312 11.140625 -3.96875 C 11.140625 -3.363281 11.019531 -2.800781 10.78125 -2.28125 C 10.550781 -1.757812 10.203125 -1.304688 9.734375 -0.921875 C 9.273438 -0.535156 8.703125 -0.226562 8.015625 0 C 7.335938 0.21875 6.550781 0.328125 5.65625 0.328125 Z M 5.65625 0.328125 "/></g></g></g><g fill="#000000" fill-opacity="1"><g transform="translate(192.792247, 76.42735)"><g><path d="M 1.703125 0 L 1.703125 -12.375 L 8.828125 -12.375 L 8.828125 -11.0625 L 3.265625 -11.0625 L 3.265625 -6.875 L 7.984375 -6.875 L 7.984375 -5.546875 L 3.265625 -5.546875 L 3.265625 0 Z M 1.703125 0 "/></g></g></g><g fill="#000000" fill-opacity="1"><g transform="translate(202.117683, 76.42735)"><g><path d="M 3.1875 0.21875 C 2.59375 0.21875 2.171875 0.046875 1.921875 -0.296875 C 1.671875 -0.648438 1.546875 -1.164062 1.546875 -1.84375 L 1.546875 -13.4375 L 3.09375 -13.4375 L 3.09375 -1.734375 C 3.09375 -1.484375 3.132812 -1.304688 3.21875 -1.203125 C 3.3125 -1.109375 3.414062 -1.0625 3.53125 -1.0625 C 3.582031 -1.0625 3.628906 -1.0625 3.671875 -1.0625 C 3.710938 -1.0625 3.78125 -1.070312 3.875 -1.09375 L 4.078125 0.078125 C 3.972656 0.128906 3.851562 0.164062 3.71875 0.1875 C 3.582031 0.207031 3.40625 0.21875 3.1875 0.21875 Z M 3.1875 0.21875 "/></g></g></g><g fill="#000000" fill-opacity="1"><g transform="translate(206.931417, 76.42735)"><g><path d="M 5.109375 0.21875 C 4.546875 0.21875 4.007812 0.113281 3.5 -0.09375 C 2.988281 -0.3125 2.535156 -0.625 2.140625 -1.03125 C 1.753906 -1.4375 1.445312 -1.9375 1.21875 -2.53125 C 0.988281 -3.132812 0.875 -3.8125 0.875 -4.5625 C 0.875 -5.332031 0.988281 -6.015625 1.21875 -6.609375 C 1.445312 -7.210938 1.753906 -7.722656 2.140625 -8.140625 C 2.535156 -8.554688 2.988281 -8.867188 3.5 -9.078125 C 4.007812 -9.296875 4.546875 -9.40625 5.109375 -9.40625 C 5.679688 -9.40625 6.222656 -9.296875 6.734375 -9.078125 C 7.242188 -8.867188 7.691406 -8.554688 8.078125 -8.140625 C 8.460938 -7.722656 8.769531 -7.210938 9 -6.609375 C 9.238281 -6.015625 9.359375 -5.332031 9.359375 -4.5625 C 9.359375 -3.8125 9.238281 -3.132812 9 -2.53125 C 8.769531 -1.9375 8.460938 -1.4375 8.078125 -1.03125 C 7.691406 -0.625 7.242188 -0.3125 6.734375 -0.09375 C 6.222656 0.113281 5.679688 0.21875 5.109375 0.21875 Z M 5.109375 -1.0625 C 5.503906 -1.0625 5.863281 -1.144531 6.1875 -1.3125 C 6.519531 -1.476562 6.800781 -1.710938 7.03125 -2.015625 C 7.257812 -2.328125 7.4375 -2.695312 7.5625 -3.125 C 7.6875 -3.5625 7.75 -4.039062 7.75 -4.5625 C 7.75 -5.09375 7.6875 -5.570312 7.5625 -6 C 7.4375 -6.4375 7.257812 -6.8125 7.03125 -7.125 C 6.800781 -7.445312 6.519531 -7.691406 6.1875 -7.859375 C 5.863281 -8.023438 5.503906 -8.109375 5.109375 -8.109375 C 4.722656 -8.109375 4.363281 -8.023438 4.03125 -7.859375 C 3.707031 -7.691406 3.425781 -7.445312 3.1875 -7.125 C 2.957031 -6.8125 2.78125 -6.4375 2.65625 -6 C 2.53125 -5.570312 2.46875 -5.09375 2.46875 -4.5625 C 2.46875 -4.039062 2.53125 -3.5625 2.65625 -3.125 C 2.78125 -2.695312 2.957031 -2.328125 3.1875 -2.015625 C 3.425781 -1.710938 3.707031 -1.476562 4.03125 -1.3125 C 4.363281 -1.144531 4.722656 -1.0625 5.109375 -1.0625 Z M 5.109375 -1.0625 "/></g></g></g><g fill="#000000" fill-opacity="1"><g transform="translate(217.162962, 76.42735)"><g><path d="M 3 0 L 0.453125 -9.171875 L 2.03125 -9.171875 L 3.390625 -3.875 C 3.492188 -3.425781 3.585938 -2.992188 3.671875 -2.578125 C 3.765625 -2.171875 3.851562 -1.753906 3.9375 -1.328125 L 4.015625 -1.328125 C 4.117188 -1.753906 4.21875 -2.175781 4.3125 -2.59375 C 4.414062 -3.019531 4.523438 -3.445312 4.640625 -3.875 L 6.0625 -9.171875 L 7.5625 -9.171875 L 9 -3.875 C 9.113281 -3.425781 9.222656 -2.992188 9.328125 -2.578125 C 9.441406 -2.171875 9.546875 -1.753906 9.640625 -1.328125 L 9.71875 -1.328125 C 9.820312 -1.753906 9.914062 -2.171875 10 -2.578125 C 10.09375 -2.992188 10.1875 -3.425781 10.28125 -3.875 L 11.625 -9.171875 L 13.09375 -9.171875 L 10.640625 0 L 8.765625 0 L 7.4375 -4.921875 C 7.320312 -5.367188 7.21875 -5.804688 7.125 -6.234375 C 7.03125 -6.660156 6.925781 -7.101562 6.8125 -7.5625 L 6.734375 -7.5625 C 6.640625 -7.101562 6.539062 -6.65625 6.4375 -6.21875 C 6.332031 -5.78125 6.21875 -5.34375 6.09375 -4.90625 L 4.8125 0 Z M 3 0 "/></g></g></g><g fill="#000000" fill-opacity="1"><g transform="translate(230.716933, 76.42735)"><g><path d="M 5.265625 0.21875 C 4.648438 0.21875 4.070312 0.109375 3.53125 -0.109375 C 3 -0.328125 2.535156 -0.640625 2.140625 -1.046875 C 1.742188 -1.453125 1.429688 -1.953125 1.203125 -2.546875 C 0.984375 -3.140625 0.875 -3.8125 0.875 -4.5625 C 0.875 -5.320312 0.988281 -6 1.21875 -6.59375 C 1.445312 -7.195312 1.753906 -7.703125 2.140625 -8.109375 C 2.523438 -8.523438 2.960938 -8.84375 3.453125 -9.0625 C 3.941406 -9.289062 4.453125 -9.40625 4.984375 -9.40625 C 5.554688 -9.40625 6.070312 -9.300781 6.53125 -9.09375 C 7 -8.894531 7.382812 -8.601562 7.6875 -8.21875 C 8 -7.84375 8.234375 -7.390625 8.390625 -6.859375 C 8.554688 -6.335938 8.640625 -5.75 8.640625 -5.09375 C 8.640625 -4.925781 8.632812 -4.765625 8.625 -4.609375 C 8.625 -4.453125 8.613281 -4.316406 8.59375 -4.203125 L 2.390625 -4.203125 C 2.453125 -3.222656 2.757812 -2.445312 3.3125 -1.875 C 3.863281 -1.300781 4.578125 -1.015625 5.453125 -1.015625 C 5.890625 -1.015625 6.296875 -1.082031 6.671875 -1.21875 C 7.046875 -1.351562 7.398438 -1.523438 7.734375 -1.734375 L 8.28125 -0.71875 C 7.882812 -0.46875 7.4375 -0.25 6.9375 -0.0625 C 6.445312 0.125 5.890625 0.21875 5.265625 0.21875 Z M 2.375 -5.328125 L 7.28125 -5.328125 C 7.28125 -6.253906 7.082031 -6.957031 6.6875 -7.4375 C 6.289062 -7.925781 5.734375 -8.171875 5.015625 -8.171875 C 4.691406 -8.171875 4.378906 -8.109375 4.078125 -7.984375 C 3.785156 -7.859375 3.519531 -7.671875 3.28125 -7.421875 C 3.039062 -7.179688 2.84375 -6.882812 2.6875 -6.53125 C 2.53125 -6.175781 2.425781 -5.773438 2.375 -5.328125 Z M 2.375 -5.328125 "/></g></g></g><g fill="#000000" fill-opacity="1"><g transform="translate(240.080125, 76.42735)"><g><path d="M 1.546875 0 L 1.546875 -9.171875 L 2.828125 -9.171875 L 2.96875 -7.515625 L 3.015625 -7.515625 C 3.328125 -8.085938 3.707031 -8.546875 4.15625 -8.890625 C 4.601562 -9.234375 5.09375 -9.40625 5.625 -9.40625 C 5.988281 -9.40625 6.316406 -9.34375 6.609375 -9.21875 L 6.296875 -7.859375 C 6.148438 -7.898438 6.015625 -7.929688 5.890625 -7.953125 C 5.765625 -7.984375 5.609375 -8 5.421875 -8 C 5.023438 -8 4.613281 -7.84375 4.1875 -7.53125 C 3.769531 -7.21875 3.40625 -6.671875 3.09375 -5.890625 L 3.09375 0 Z M 1.546875 0 "/></g></g></g><g fill="#000000" fill-opacity="1"><g transform="translate(246.630575, 76.42735)"><g/></g></g><g fill="#000000" fill-opacity="1"><g transform="translate(250.406051, 76.42735)"><g><path d="M 5.140625 0.21875 C 4.265625 0.21875 3.457031 0.0546875 2.71875 -0.265625 C 1.976562 -0.585938 1.335938 -1.035156 0.796875 -1.609375 L 1.734375 -2.703125 C 2.171875 -2.234375 2.6875 -1.859375 3.28125 -1.578125 C 3.882812 -1.296875 4.507812 -1.15625 5.15625 -1.15625 C 5.96875 -1.15625 6.597656 -1.335938 7.046875 -1.703125 C 7.503906 -2.078125 7.734375 -2.566406 7.734375 -3.171875 C 7.734375 -3.484375 7.679688 -3.75 7.578125 -3.96875 C 7.472656 -4.1875 7.328125 -4.375 7.140625 -4.53125 C 6.960938 -4.695312 6.742188 -4.84375 6.484375 -4.96875 C 6.234375 -5.09375 5.96875 -5.222656 5.6875 -5.359375 L 3.90625 -6.140625 C 3.613281 -6.265625 3.316406 -6.414062 3.015625 -6.59375 C 2.710938 -6.769531 2.441406 -6.984375 2.203125 -7.234375 C 1.960938 -7.484375 1.765625 -7.78125 1.609375 -8.125 C 1.460938 -8.46875 1.390625 -8.867188 1.390625 -9.328125 C 1.390625 -9.785156 1.488281 -10.21875 1.6875 -10.625 C 1.882812 -11.03125 2.15625 -11.378906 2.5 -11.671875 C 2.84375 -11.972656 3.25 -12.203125 3.71875 -12.359375 C 4.195312 -12.523438 4.71875 -12.609375 5.28125 -12.609375 C 6.03125 -12.609375 6.71875 -12.46875 7.34375 -12.1875 C 7.96875 -11.90625 8.503906 -11.535156 8.953125 -11.078125 L 8.09375 -10.0625 C 7.71875 -10.425781 7.300781 -10.710938 6.84375 -10.921875 C 6.382812 -11.128906 5.863281 -11.234375 5.28125 -11.234375 C 4.59375 -11.234375 4.035156 -11.070312 3.609375 -10.75 C 3.191406 -10.425781 2.984375 -9.984375 2.984375 -9.421875 C 2.984375 -9.117188 3.039062 -8.863281 3.15625 -8.65625 C 3.28125 -8.445312 3.441406 -8.265625 3.640625 -8.109375 C 3.835938 -7.953125 4.054688 -7.8125 4.296875 -7.6875 C 4.535156 -7.570312 4.785156 -7.460938 5.046875 -7.359375 L 6.796875 -6.609375 C 7.148438 -6.453125 7.484375 -6.273438 7.796875 -6.078125 C 8.109375 -5.890625 8.378906 -5.664062 8.609375 -5.40625 C 8.835938 -5.144531 9.015625 -4.84375 9.140625 -4.5 C 9.273438 -4.15625 9.34375 -3.753906 9.34375 -3.296875 C 9.34375 -2.804688 9.242188 -2.347656 9.046875 -1.921875 C 8.859375 -1.492188 8.578125 -1.117188 8.203125 -0.796875 C 7.835938 -0.484375 7.394531 -0.234375 6.875 -0.046875 C 6.363281 0.128906 5.785156 0.21875 5.140625 0.21875 Z M 5.140625 0.21875 "/></g></g></g><g fill="#000000" fill-opacity="1"><g transform="translate(260.486579, 76.42735)"><g><path d="M 1.546875 0 L 1.546875 -13.4375 L 3.09375 -13.4375 L 3.09375 -9.78125 L 3.03125 -7.890625 C 3.476562 -8.304688 3.941406 -8.660156 4.421875 -8.953125 C 4.898438 -9.253906 5.457031 -9.40625 6.09375 -9.40625 C 7.0625 -9.40625 7.769531 -9.101562 8.21875 -8.5 C 8.664062 -7.894531 8.890625 -7 8.890625 -5.8125 L 8.890625 0 L 7.34375 0 L 7.34375 -5.609375 C 7.34375 -6.472656 7.203125 -7.097656 6.921875 -7.484375 C 6.648438 -7.867188 6.210938 -8.0625 5.609375 -8.0625 C 5.128906 -8.0625 4.707031 -7.941406 4.34375 -7.703125 C 3.976562 -7.460938 3.5625 -7.109375 3.09375 -6.640625 L 3.09375 0 Z M 1.546875 0 "/></g></g></g><g fill="#000000" fill-opacity="1"><g transform="translate(270.755881, 76.42735)"><g><path d="M 5.109375 0.21875 C 4.546875 0.21875 4.007812 0.113281 3.5 -0.09375 C 2.988281 -0.3125 2.535156 -0.625 2.140625 -1.03125 C 1.753906 -1.4375 1.445312 -1.9375 1.21875 -2.53125 C 0.988281 -3.132812 0.875 -3.8125 0.875 -4.5625 C 0.875 -5.332031 0.988281 -6.015625 1.21875 -6.609375 C 1.445312 -7.210938 1.753906 -7.722656 2.140625 -8.140625 C 2.535156 -8.554688 2.988281 -8.867188 3.5 -9.078125 C 4.007812 -9.296875 4.546875 -9.40625 5.109375 -9.40625 C 5.679688 -9.40625 6.222656 -9.296875 6.734375 -9.078125 C 7.242188 -8.867188 7.691406 -8.554688 8.078125 -8.140625 C 8.460938 -7.722656 8.769531 -7.210938 9 -6.609375 C 9.238281 -6.015625 9.359375 -5.332031 9.359375 -4.5625 C 9.359375 -3.8125 9.238281 -3.132812 9 -2.53125 C 8.769531 -1.9375 8.460938 -1.4375 8.078125 -1.03125 C 7.691406 -0.625 7.242188 -0.3125 6.734375 -0.09375 C 6.222656 0.113281 5.679688 0.21875 5.109375 0.21875 Z M 5.109375 -1.0625 C 5.503906 -1.0625 5.863281 -1.144531 6.1875 -1.3125 C 6.519531 -1.476562 6.800781 -1.710938 7.03125 -2.015625 C 7.257812 -2.328125 7.4375 -2.695312 7.5625 -3.125 C 7.6875 -3.5625 7.75 -4.039062 7.75 -4.5625 C 7.75 -5.09375 7.6875 -5.570312 7.5625 -6 C 7.4375 -6.4375 7.257812 -6.8125 7.03125 -7.125 C 6.800781 -7.445312 6.519531 -7.691406 6.1875 -7.859375 C 5.863281 -8.023438 5.503906 -8.109375 5.109375 -8.109375 C 4.722656 -8.109375 4.363281 -8.023438 4.03125 -7.859375 C 3.707031 -7.691406 3.425781 -7.445312 3.1875 -7.125 C 2.957031 -6.8125 2.78125 -6.4375 2.65625 -6 C 2.53125 -5.570312 2.46875 -5.09375 2.46875 -4.5625 C 2.46875 -4.039062 2.53125 -3.5625 2.65625 -3.125 C 2.78125 -2.695312 2.957031 -2.328125 3.1875 -2.015625 C 3.425781 -1.710938 3.707031 -1.476562 4.03125 -1.3125 C 4.363281 -1.144531 4.722656 -1.0625 5.109375 -1.0625 Z M 5.109375 -1.0625 "/></g></g></g><g fill="#000000" fill-opacity="1"><g transform="translate(280.987425, 76.42735)"><g><path d="M 1.546875 3.875 L 1.546875 -9.171875 L 2.828125 -9.171875 L 2.96875 -8.109375 L 3.015625 -8.109375 C 3.429688 -8.460938 3.890625 -8.765625 4.390625 -9.015625 C 4.890625 -9.273438 5.410156 -9.40625 5.953125 -9.40625 C 6.535156 -9.40625 7.050781 -9.289062 7.5 -9.0625 C 7.957031 -8.84375 8.335938 -8.53125 8.640625 -8.125 C 8.941406 -7.71875 9.171875 -7.226562 9.328125 -6.65625 C 9.484375 -6.082031 9.5625 -5.4375 9.5625 -4.71875 C 9.5625 -3.9375 9.453125 -3.238281 9.234375 -2.625 C 9.023438 -2.019531 8.738281 -1.503906 8.375 -1.078125 C 8.007812 -0.648438 7.585938 -0.328125 7.109375 -0.109375 C 6.640625 0.109375 6.140625 0.21875 5.609375 0.21875 C 5.179688 0.21875 4.753906 0.125 4.328125 -0.0625 C 3.910156 -0.25 3.488281 -0.503906 3.0625 -0.828125 L 3.09375 0.78125 L 3.09375 3.875 Z M 5.34375 -1.078125 C 5.71875 -1.078125 6.066406 -1.160156 6.390625 -1.328125 C 6.710938 -1.492188 6.988281 -1.734375 7.21875 -2.046875 C 7.445312 -2.359375 7.628906 -2.738281 7.765625 -3.1875 C 7.898438 -3.644531 7.96875 -4.15625 7.96875 -4.71875 C 7.96875 -5.21875 7.921875 -5.675781 7.828125 -6.09375 C 7.742188 -6.507812 7.601562 -6.863281 7.40625 -7.15625 C 7.207031 -7.457031 6.953125 -7.6875 6.640625 -7.84375 C 6.335938 -8.007812 5.972656 -8.09375 5.546875 -8.09375 C 5.160156 -8.09375 4.769531 -7.984375 4.375 -7.765625 C 3.976562 -7.554688 3.550781 -7.253906 3.09375 -6.859375 L 3.09375 -2.03125 C 3.507812 -1.6875 3.910156 -1.441406 4.296875 -1.296875 C 4.691406 -1.148438 5.039062 -1.078125 5.34375 -1.078125 Z M 5.34375 -1.078125 "/></g></g></g><g clip-path="url(#ec63fddb56)"><path fill="#ff8888" d="M 180.296875 61.675781 C 179.476562 68.605469 178.8125 69.269531 171.882812 70.089844 C 171.898438 70.089844 171.910156 70.09375 171.925781 70.09375 C 178.8125 70.910156 179.476562 71.589844 180.296875 78.503906 C 181.117188 71.574219 181.78125 70.910156 188.710938 70.089844 C 181.78125 69.269531 181.117188 68.605469 180.296875 61.675781 Z M 180.296875 61.675781 " fill-opacity="1" fill-rule="nonzero"/></g><g clip-path="url(#050bedd1ef)"><path fill="#ff8888" d="M 303.832031 61.675781 C 303.011719 68.605469 302.347656 69.269531 295.417969 70.089844 C 295.433594 70.089844 295.449219 70.09375 295.460938 70.09375 C 302.351562 70.910156 303.015625 71.589844 303.832031 78.503906 C 304.652344 71.574219 305.316406 70.910156 312.246094 70.089844 C 305.316406 69.269531 304.652344 68.605469 303.832031 61.675781 Z M 303.832031 61.675781 " fill-opacity="1" fill-rule="nonzero"/></g></svg>